<?xml version="1.0" encoding="utf-8"?>
<!-- Generator: Adobe Illustrator 24.1.2, SVG Export Plug-In . SVG Version: 6.00 Build 0)  -->
<svg version="1.1" id="Layer_1" xmlns="http://www.w3.org/2000/svg" xmlns:xlink="http://www.w3.org/1999/xlink" x="0px" y="0px"
	 viewBox="0 0 256 256" style="enable-background:new 0 0 256 256;" xml:space="preserve">
<style type="text/css">
	.st0{fill:#080808;}
</style>
<g>
	<g>
		<path class="st0" d="M136.3,161.1c-13.4,0-26.9-0.2-40.3,0.2c-1.9,0-6.7-2.8-6,2.6c0.4,3.6,0,8.5,6.8,8.2
			c14.3-0.6,28.7-0.1,43.1-0.2c9.2-0.1,18.4-0.3,27.5-0.5c11.8-0.2,21.5,9.5,20.9,21c-0.5,11.4-10.6,20.5-21.7,19.5
			c-12.1-1.1-20.9-11.8-18.5-23.6c0.9-4.7,0.2-5.6-4.4-5.5c-10.8,0.3-21.7,0.1-32.5,0.1c-3.2,0-5.2-0.1-4.3,4.5
			c2,11.1-3.5,20.4-13.1,23.5c-9.8,3.1-20-1.1-24.5-10.1c-4.7-9.6-2-19.7,7.9-26.3c2.9-2,2.9-3.8,2.3-6.4
			C71.3,132.4,62.9,97,54.8,61.4c-0.9-3.8-2.3-5-6-4.8c-5.6,0.3-11.3-0.3-16.9,0.2c-4.8,0.4-4.6-2.3-4.5-5.5c0-3.2-0.3-5.9,4.5-5.7
			c8.7,0.4,17.4,0.3,26.1,0c3.6-0.1,4.9,1.2,5.6,4.5c1.4,7.1,3.5,14.2,4.8,21.3c1,5.3,2.7,7.6,9,7.5c39.6-0.4,79.1-0.1,118.7-0.3
			c5.9,0,6.8,1.3,5.3,6.9c-6.1,23.2-11.7,46.5-17.4,69.8c-1,4.3-2.7,6-7.5,5.9C163.1,160.8,149.7,161.1,136.3,161.1z M188.8,89.6
			c-37.9,0-75.1,0-112.3-0.1c-3.8,0-3.4,1.6-2.8,4.4c4.1,17.4,8,34.8,11.9,52.3c0.6,2.7,1.7,3.8,4.7,3.8c26.6-0.1,53.2-0.1,79.9-0.1
			c2.3,0,3.7-0.3,4.4-3.1C179.2,127.9,184,109.1,188.8,89.6z M177.3,191.3c-0.1-5.1-4.6-9.3-9.8-8.9c-5.5,0.5-8.7,3.8-8.5,9.3
			c0.1,5.5,3.5,8.6,9,9C172.9,201.1,177.4,196.4,177.3,191.3z M96.7,191.2c-0.6-4.7-3.1-8.2-8.6-8.7c-5.2-0.5-9.8,3.6-9.7,8.8
			c0.1,5.5,3.1,8.8,8.5,9.4C91.7,201.3,96.5,196.8,96.7,191.2z"/>
	</g>
</g>
<g>
	<rect x="124.9" y="95.7" width="12.2" height="50"/>
	<rect x="105.9" y="114.8" width="50" height="12.2"/>
</g>
</svg>
