<?xml version="1.0" encoding="utf-8"?>
<!-- Generator: Adobe Illustrator 23.0.1, SVG Export Plug-In . SVG Version: 6.00 Build 0)  -->
<svg version="1.1" id="Layer_1" xmlns="http://www.w3.org/2000/svg" xmlns:xlink="http://www.w3.org/1999/xlink" x="0px" y="0px"
	 viewBox="0 0 256 256" style="enable-background:new 0 0 256 256;" xml:space="preserve">
<path d="M20,108h216c11,0,20,9,20,20v0c0,11-9,20-20,20H20c-11,0-20-9-20-20v0C0,117,9,108,20,108z"/>
<path d="M108,236V20c0-11,9-20,20-20h0c11,0,20,9,20,20v216c0,11-9,20-20,20h0C117,256,108,247,108,236z"/>
</svg>
